HIERARCHY
ROOT Hips
{
 OFFSET 0.000000 0.000000 0.000000
 CHANNELS 6 Xposition Yposition Zposition Yrotation Xrotation Zrotation
 JOINT Chest
 {
  OFFSET 0.000000 9.585900 0.002600
  CHANNELS 3 Yrotation Xrotation Zrotation
  JOINT Chest2
  {
   OFFSET 0.000000 9.601200 -0.005300
   CHANNELS 3 Yrotation Xrotation Zrotation
   JOINT Chest3
   {
    OFFSET 0.000000 9.561800 0.000000
    CHANNELS 3 Yrotation Xrotation Zrotation
    JOINT Chest4
    {
     OFFSET 0.000000 9.552100 0.000000
     CHANNELS 3 Yrotation Xrotation Zrotation
     JOINT Neck
     {
      OFFSET 0.000000 14.453000 0.000000
      CHANNELS 3 Yrotation Xrotation Zrotation
      JOINT Head
      {
       OFFSET 0.000000 8.936500 -0.011300
       CHANNELS 3 Yrotation Xrotation Zrotation
       End Site
       {
        OFFSET 0.000000 17.073600 -0.006000
       }
      }
     }
     JOINT RightCollar
     {
      OFFSET -2.921100 9.558500 0.000000
      CHANNELS 3 Yrotation Xrotation Zrotation
      JOINT RightShoulder
      {
       OFFSET -13.519700 0.000000 0.000000
       CHANNELS 3 Yrotation Xrotation Zrotation
       JOINT RightElbow
       {
        OFFSET 0.000000 -29.696600 0.000000
        CHANNELS 3 Yrotation Xrotation Zrotation
        JOINT RightWrist
        {
         OFFSET 0.000000 -24.004700 0.000000
         CHANNELS 3 Yrotation Xrotation Zrotation
         End Site
         {
          OFFSET 0.000000 -17.728500 0.000000
         }
        }
       }
      }
     }
     JOINT LeftCollar
     {
      OFFSET 2.921100 9.558500 0.000000
      CHANNELS 3 Yrotation Xrotation Zrotation
      JOINT LeftShoulder
      {
       OFFSET 13.519700 0.000000 0.000000
       CHANNELS 3 Yrotation Xrotation Zrotation
       JOINT LeftElbow
       {
        OFFSET 0.000000 -29.696600 0.000000
        CHANNELS 3 Yrotation Xrotation Zrotation
        JOINT LeftWrist
        {
         OFFSET 0.000000 -24.004700 0.000000
         CHANNELS 3 Yrotation Xrotation Zrotation
         End Site
         {
          OFFSET 0.000000 -17.728500 0.000000
         }
        }
       }
      }
     }
    }
   }
  }
 }
 JOINT RightHip
 {
  OFFSET -7.771700 -0.012900 -0.001300
  CHANNELS 3 Yrotation Xrotation Zrotation
  JOINT RightKnee
  {
   OFFSET 0.000000 -40.869800 0.001200
   CHANNELS 3 Yrotation Xrotation Zrotation
   JOINT RightAnkle
   {
    OFFSET 0.000000 -39.717900 0.002100
    CHANNELS 3 Yrotation Xrotation Zrotation
    JOINT RightToe
    {
     OFFSET 0.000000 -4.965400 11.033500
     CHANNELS 3 Yrotation Xrotation Zrotation
     End Site
     {
      OFFSET 0.000000 -1.423100 5.872300
     }
    }
   }
  }
 }
 JOINT LeftHip
 {
  OFFSET 7.771700 -0.012900 -0.001300
  CHANNELS 3 Yrotation Xrotation Zrotation
  JOINT LeftKnee
  {
   OFFSET 0.000000 -40.869800 0.001200
   CHANNELS 3 Yrotation Xrotation Zrotation
   JOINT LeftAnkle
   {
    OFFSET 0.000000 -39.717900 0.002100
    CHANNELS 3 Yrotation Xrotation Zrotation
    JOINT LeftToe
    {
     OFFSET 0.000000 -4.965400 11.033500
     CHANNELS 3 Yrotation Xrotation Zrotation
     End Site
     {
      OFFSET 0.000000 -1.423100 5.872300
     }
    }
   }
  }
 }
}
MOTION
Frames: 7
Frame Time: 0.008333
0.000000 85.388000 0.000000 0.000000 -5.767877 0.000000 0.000000 11.653817 0.000000 0.000000 -5.885947 0.000000 0.000000 -0.000000 0.000000 0.000000 -0.000000 0.000000 0.000000 12.528835 0.000000 0.000000 0.711642 0.000000 0.000000 -0.000000 0.000000 0.000000 0.000000 -90.000000 0.000000 -2.309062 0.000000 0.000000 2.309062 0.000000 0.000000 -0.000000 0.000000 0.000000 -0.000000 90.000000 0.000000 -2.309062 0.000000 0.000000 2.309062 0.000000 0.000000 8.520406 0.000000 0.000000 1.905762 0.000000 -0.000000 -4.658285 0.000000 0.000000 -0.000000 0.000000 0.000000 8.520406 0.000000 0.000000 1.905762 0.000000 -0.000000 -4.658285 0.000000 0.000000 -0.000000 0.000000
-14.461575 57.926968 60.510059 173.758740 -28.928292 -1.746480 4.105564 18.354590 5.037645 0.318747 2.242424 0.337120 0.641236 3.603174 0.482012 3.090553 16.078561 2.556687 -7.225768 10.431613 -6.091979 -11.284325 -16.570404 -8.509066 0.312812 -1.734982 -0.979440 6.171371 -12.681426 -16.670608 139.631780 -77.458976 -105.763876 14.233438 -14.236313 -46.469880 -5.859601 -0.823115 0.068778 11.238723 -6.703342 2.906839 -145.222412 -63.324662 117.783870 -10.282853 0.504944 22.590352 7.432480 -42.973984 -1.844314 2.379429 68.441909 1.752626 4.858826 7.989877 5.837682 -0.067735 0.202912 0.007719 -8.775848 -49.923000 2.892228 26.802442 63.281958 29.450718 -10.993779 40.145398 1.456853 0.343149 -21.117906 -9.531412
-14.457158 57.929767 60.508090 173.787964 -28.927574 -1.797108 4.142848 18.309450 5.057093 0.359423 2.193829 0.301823 0.619535 3.602656 0.490907 3.097514 16.056917 2.535717 -7.354531 10.498376 -5.982221 -11.524283 -16.414155 -8.260098 0.301942 -1.737056 -0.977291 5.999795 -12.574636 -16.619268 139.181976 -77.711628 -105.341055 14.170638 -14.046791 -46.520925 -5.821954 -0.776875 0.077429 11.294364 -6.775770 2.791608 -144.887904 -63.807965 117.580358 -10.135987 0.508426 22.991969 7.438693 -42.966561 -1.787617 2.332552 68.432640 1.688276 4.825204 7.982477 5.885151 -0.054026 0.181725 -0.009229 -8.792322 -49.906611 2.918619 26.777285 63.270810 29.422609 -10.149641 40.172827 1.492285 0.496400 -21.031188 -9.393473
-14.461666 57.932371 60.505434 173.816288 -28.921957 -1.794905 4.165439 18.264785 5.021175 0.373738 2.168572 0.284741 0.623181 3.578698 0.478054 3.105232 16.036680 2.511925 -7.464987 10.583420 -5.864880 -11.789445 -16.251228 -7.988096 0.289233 -1.745287 -0.975497 5.834357 -12.468894 -16.573065 138.669331 -77.931220 -104.849496 14.092145 -13.852873 -46.556756 -5.790687 -0.734081 0.086433 11.327729 -6.841755 2.681872 -144.449082 -64.177920 117.320209 -10.031510 0.507619 23.372545 7.483652 -42.964229 -1.818281 2.284562 68.439030 1.634788 4.819367 7.956195 5.908874 -0.061944 0.185321 -0.003281 -8.761785 -49.904511 2.885307 26.760262 63.263367 29.395344 -9.651856 40.187341 1.588579 0.519937 -20.995337 -9.345974
-14.470905 57.934944 60.502424 173.846065 -28.913723 -1.765083 4.181720 18.221655 4.954876 0.375591 2.156458 0.278024 0.626219 3.559653 0.467024 3.122313 15.999740 2.469547 -7.575374 10.675502 -5.737580 -12.058194 -16.073984 -7.698015 0.272066 -1.755645 -0.974036 5.677099 -12.367569 -16.533743 138.099487 -78.127861 -104.298552 13.997505 -13.662899 -46.575280 -5.767014 -0.694877 0.096939 11.347806 -6.899038 2.575754 -143.920642 -64.412290 116.996063 -9.967325 0.532565 23.686331 7.539494 -42.965241 -1.887817 2.237763 68.454704 1.582273 4.817301 7.922626 5.920875 -0.067163 0.198180 0.011428 -8.711442 -49.911282 2.819670 26.787875 63.248287 29.398647 -9.366024 40.201323 1.727726 0.504115 -20.991494 -9.369849
-14.484589 57.937052 60.499777 173.880387 -28.899204 -1.710195 4.188578 18.174124 4.857801 0.377488 2.144185 0.271107 0.629256 3.540322 0.455709 3.139781 15.962162 2.425756 -7.684527 10.776494 -5.600341 -12.328070 -15.878927 -7.390633 0.249275 -1.763409 -0.974951 5.531326 -12.270847 -16.498274 137.478008 -78.305714 -103.695585 13.896705 -13.477281 -46.588986 -5.748576 -0.655087 0.108404 11.362609 -6.949325 2.474685 -143.315535 -64.516706 116.595397 -9.927560 0.597016 23.917410 7.606512 -42.976073 -1.989412 2.204930 68.481064 1.531327 4.809053 7.894491 5.947367 -0.059712 0.194134 0.008109 -8.623004 -49.927928 2.713458 26.818923 63.222205 29.391991 -9.217891 40.233220 1.901541 0.503375 -21.011561 -9.447792
-14.493024 57.938963 60.498470 173.931050 -28.880230 -1.693231 4.191393 18.120012 4.788559 0.379304 2.131762 0.264176 0.632258 3.520807 0.444293 3.157199 15.923998 2.381382 -7.756684 10.886538 -5.466626 -12.633634 -15.657902 -7.050364 0.224440 -1.769521 -0.978837 5.395128 -12.177761 -16.463508 136.800868 -78.460685 -103.034153 13.802192 -13.296931 -46.610135 -5.730076 -0.613648 0.118400 11.378397 -6.994342 2.383733 -142.671968 -64.532578 116.142906 -9.900210 0.683842 24.075548 7.628427 -42.988209 -2.015050 2.180285 68.496937 1.444207 4.781041 7.866319 6.004547 -0.063299 0.191795 0.005512 -8.583239 -49.945212 2.646486 26.808255 63.203021 29.369590 -9.090614 40.250600 1.959478 0.427218 -21.022988 -9.413389
